<svg xmlns="http://www.w3.org/2000/svg" width="440" height="340" viewBox="0 0 440 340"><defs><marker id="arr" markerWidth="8" markerHeight="8" refX="6" refY="4" orient="auto"><path d="M0,0 L8,4 L0,8 z" fill="#000"/></marker></defs><polygon points="150.0,50.0 250.0,50.0 250.0,15.0 150.0,15.0" fill="#fff" stroke="#000" stroke-width="1.3"/><text x="200.0" y="36.5" font-size="11" text-anchor="middle" font-family="Noto Sans CJK JP, Noto Sans, sans-serif">はい</text><polygon points="140.0,150.0 200.0,150.0 200.0,110.0 140.0,110.0" fill="#fff" stroke="#000" stroke-width="1.3"/><text x="170.0" y="134.0" font-size="10" text-anchor="middle" font-family="Noto Sans CJK JP, Noto Sans, sans-serif">うしんぼう</text><polygon points="140.0,190.0 200.0,190.0 200.0,150.0 140.0,150.0" fill="#fff" stroke="#000" stroke-width="1.3"/><text x="170.0" y="174.0" font-size="10" text-anchor="middle" font-family="Noto Sans CJK JP, Noto Sans, sans-serif">うしんしつ</text><polygon points="200.0,150.0 260.0,150.0 260.0,110.0 200.0,110.0" fill="#fff" stroke="#000" stroke-width="1.3"/><text x="230.0" y="134.0" font-size="10" text-anchor="middle" font-family="Noto Sans CJK JP, Noto Sans, sans-serif">さしんぼう</text><polygon points="200.0,190.0 260.0,190.0 260.0,150.0 200.0,150.0" fill="#fff" stroke="#000" stroke-width="1.3"/><text x="230.0" y="174.0" font-size="10" text-anchor="middle" font-family="Noto Sans CJK JP, Noto Sans, sans-serif">さしんしつ</text><text x="200.0" y="104.0" font-size="10" text-anchor="middle" font-family="Noto Sans CJK JP, Noto Sans, sans-serif">しんぞう</text><polygon points="50.0,295.0 120.0,295.0 120.0,265.0 50.0,265.0" fill="#fff" stroke="#000" stroke-width="1.3"/><text x="85.0" y="284.0" font-size="10" text-anchor="middle" font-family="Noto Sans CJK JP, Noto Sans, sans-serif">ぜんしん</text><polygon points="150.0,295.0 230.0,295.0 230.0,265.0 150.0,265.0" fill="#fff" stroke="#000" stroke-width="1.3"/><text x="190.0" y="284.0" font-size="10" text-anchor="middle" font-family="Noto Sans CJK JP, Noto Sans, sans-serif">しょうちょう</text><polygon points="150.0,240.0 230.0,240.0 230.0,210.0 150.0,210.0" fill="#fff" stroke="#000" stroke-width="1.3"/><text x="190.0" y="229.0" font-size="10" text-anchor="middle" font-family="Noto Sans CJK JP, Noto Sans, sans-serif">かんぞう</text><polygon points="330.0,295.0 400.0,295.0 400.0,265.0 330.0,265.0" fill="#fff" stroke="#000" stroke-width="1.3"/><text x="365.0" y="284.0" font-size="10" text-anchor="middle" font-family="Noto Sans CJK JP, Noto Sans, sans-serif">じんぞう</text><line x1="140.0" y1="170.0" x2="110.0" y2="170.0" stroke="#000" stroke-width="1.4"/><line x1="110.0" y1="170.0" x2="110.0" y2="35.0" stroke="#000" stroke-width="1.4"/><line x1="110.0" y1="35.0" x2="150.0" y2="35.0" stroke="#000" stroke-width="1.4" marker-end="url(#arr)"/><text x="106.0" y="129.0" font-size="12" text-anchor="end" font-family="Noto Sans CJK JP, Noto Sans, sans-serif">①</text><line x1="250.0" y1="35.0" x2="290.0" y2="35.0" stroke="#000" stroke-width="1.4"/><line x1="290.0" y1="35.0" x2="290.0" y2="130.0" stroke="#000" stroke-width="1.4"/><line x1="290.0" y1="130.0" x2="260.0" y2="130.0" stroke="#000" stroke-width="1.4" marker-end="url(#arr)"/><text x="294.0" y="84.0" font-size="12" text-anchor="start" font-family="Noto Sans CJK JP, Noto Sans, sans-serif">②</text><line x1="260.0" y1="170.0" x2="415.0" y2="170.0" stroke="#000" stroke-width="1.4"/><line x1="415.0" y1="170.0" x2="415.0" y2="320.0" stroke="#000" stroke-width="1.4"/><line x1="415.0" y1="320.0" x2="85.0" y2="320.0" stroke="#000" stroke-width="1.4"/><line x1="85.0" y1="320.0" x2="85.0" y2="295.0" stroke="#000" stroke-width="1.4" marker-end="url(#arr)"/><line x1="190.0" y1="320.0" x2="190.0" y2="295.0" stroke="#000" stroke-width="1.4" marker-end="url(#arr)"/><line x1="415.0" y1="280.0" x2="400.0" y2="280.0" stroke="#000" stroke-width="1.4" marker-end="url(#arr)"/><text x="419.0" y="224.0" font-size="12" text-anchor="start" font-family="Noto Sans CJK JP, Noto Sans, sans-serif">⑦</text><text x="408.0" y="270.0" font-size="12" text-anchor="middle" font-family="Noto Sans CJK JP, Noto Sans, sans-serif">⑤</text><line x1="190.0" y1="265.0" x2="190.0" y2="240.0" stroke="#000" stroke-width="1.4" marker-end="url(#arr)"/><text x="196.0" y="257.0" font-size="12" text-anchor="start" font-family="Noto Sans CJK JP, Noto Sans, sans-serif">③</text><line x1="85.0" y1="265.0" x2="85.0" y2="250.0" stroke="#000" stroke-width="1.4"/><line x1="85.0" y1="250.0" x2="25.0" y2="250.0" stroke="#000" stroke-width="1.4"/><line x1="25.0" y1="250.0" x2="25.0" y2="90.0" stroke="#000" stroke-width="1.4"/><line x1="25.0" y1="90.0" x2="104.0" y2="90.0" stroke="#000" stroke-width="1.4"/><path d="M 104.0 90.0 a 6 6 0 0 1 12 0" fill="none" stroke="#000" stroke-width="1.4"/><line x1="116.0" y1="90.0" x2="170.0" y2="90.0" stroke="#000" stroke-width="1.4"/><line x1="170.0" y1="90.0" x2="170.0" y2="110.0" stroke="#000" stroke-width="1.4" marker-end="url(#arr)"/><text x="21.0" y="164.0" font-size="12" text-anchor="end" font-family="Noto Sans CJK JP, Noto Sans, sans-serif">⑧</text><line x1="150.0" y1="225.0" x2="25.0" y2="225.0" stroke="#000" stroke-width="1.4"/><line x1="60.0" y1="225.0" x2="40.0" y2="225.0" stroke="#000" stroke-width="1.4" marker-end="url(#arr)"/><text x="90.0" y="217.0" font-size="12" text-anchor="middle" font-family="Noto Sans CJK JP, Noto Sans, sans-serif">④</text><line x1="365.0" y1="265.0" x2="365.0" y2="200.0" stroke="#000" stroke-width="1.4"/><line x1="365.0" y1="200.0" x2="25.0" y2="200.0" stroke="#000" stroke-width="1.4"/><line x1="60.0" y1="200.0" x2="40.0" y2="200.0" stroke="#000" stroke-width="1.4" marker-end="url(#arr)"/><text x="300.0" y="192.0" font-size="12" text-anchor="middle" font-family="Noto Sans CJK JP, Noto Sans, sans-serif">⑥</text></svg>