<svg xmlns="http://www.w3.org/2000/svg" width="720" height="460" viewBox="0 0 720 460" role="img" aria-label="地震波の到着時間と震源からの距離。P波6km/s、S波3km/sのモデル。"><title>地震波の到着時間と震源からの距離。P波6km/s、S波3km/sのモデル。</title><defs><marker id="sci-visual_seismic-arrow" markerWidth="8" markerHeight="8" refX="7" refY="4" orient="auto"><path d="M0,0 L8,4 L0,8 Z" fill="#263548"/></marker><pattern id="sci-visual_seismic-hatch" width="7" height="7" patternUnits="userSpaceOnUse"><path d="M-1,1 L1,-1 M0,7 L7,0 M6,8 L8,6" stroke="#66788d" stroke-width="1"/></pattern></defs><rect width="100%" height="100%" fill="white"/><g font-family="Noto Sans CJK JP, Noto Sans JP, Yu Gothic, sans-serif" font-size="17" fill="#182b40" stroke-linecap="round" stroke-linejoin="round"><line x1="88" y1="70" x2="88" y2="350" stroke="#d6dce4" stroke-width="1"/><text x="88" y="374" font-size="16" text-anchor="middle" fill="#182b40">0</text><line x1="208" y1="70" x2="208" y2="350" stroke="#d6dce4" stroke-width="1"/><text x="208" y="374" font-size="16" text-anchor="middle" fill="#182b40">10</text><line x1="328" y1="70" x2="328" y2="350" stroke="#d6dce4" stroke-width="1"/><text x="328" y="374" font-size="16" text-anchor="middle" fill="#182b40">20</text><line x1="448" y1="70" x2="448" y2="350" stroke="#d6dce4" stroke-width="1"/><text x="448" y="374" font-size="16" text-anchor="middle" fill="#182b40">30</text><line x1="568" y1="70" x2="568" y2="350" stroke="#d6dce4" stroke-width="1"/><text x="568" y="374" font-size="16" text-anchor="middle" fill="#182b40">40</text><line x1="88" y1="350" x2="568" y2="350" stroke="#d6dce4" stroke-width="1"/><text x="76" y="355" font-size="16" text-anchor="end" fill="#182b40">0</text><line x1="88" y1="280" x2="568" y2="280" stroke="#d6dce4" stroke-width="1"/><text x="76" y="285" font-size="16" text-anchor="end" fill="#182b40">30</text><line x1="88" y1="210" x2="568" y2="210" stroke="#d6dce4" stroke-width="1"/><text x="76" y="215" font-size="16" text-anchor="end" fill="#182b40">60</text><line x1="88" y1="140" x2="568" y2="140" stroke="#d6dce4" stroke-width="1"/><text x="76" y="145" font-size="16" text-anchor="end" fill="#182b40">90</text><line x1="88" y1="70" x2="568" y2="70" stroke="#d6dce4" stroke-width="1"/><text x="76" y="75" font-size="16" text-anchor="end" fill="#182b40">120</text><line x1="88" y1="70" x2="88" y2="350" stroke="#263548" stroke-width="2"/><line x1="88" y1="350" x2="568" y2="350" stroke="#263548" stroke-width="2"/><text x="328" y="402" font-size="17" text-anchor="middle" fill="#182b40">地震発生からの時間 [秒]</text><text x="88" y="52" font-size="17" text-anchor="start" fill="#182b40">震源からの距離 [km]</text><path d="M88,350 L148,280 L208,210 L268,140 L328,70" fill="none" stroke="#126b8d" stroke-width="3"/><circle cx="88" cy="350" r="3.8" fill="#126b8d" stroke="#126b8d" stroke-width="1"/><circle cx="148" cy="280" r="3.8" fill="#126b8d" stroke="#126b8d" stroke-width="1"/><circle cx="208" cy="210" r="3.8" fill="#126b8d" stroke="#126b8d" stroke-width="1"/><circle cx="268" cy="140" r="3.8" fill="#126b8d" stroke="#126b8d" stroke-width="1"/><circle cx="328" cy="70" r="3.8" fill="#126b8d" stroke="#126b8d" stroke-width="1"/><text x="338" y="62" font-size="17" text-anchor="start" font-weight="bold" fill="#126b8d">P波</text><path d="M88,350 L208,280 L328,210 L448,140 L568,70" fill="none" stroke="#874c18" stroke-width="3" stroke-dasharray="9 5"/><circle cx="88" cy="350" r="3.8" fill="#874c18" stroke="#874c18" stroke-width="1"/><circle cx="208" cy="280" r="3.8" fill="#874c18" stroke="#874c18" stroke-width="1"/><circle cx="328" cy="210" r="3.8" fill="#874c18" stroke="#874c18" stroke-width="1"/><circle cx="448" cy="140" r="3.8" fill="#874c18" stroke="#874c18" stroke-width="1"/><circle cx="568" cy="70" r="3.8" fill="#874c18" stroke="#874c18" stroke-width="1"/><text x="578" y="70" font-size="17" text-anchor="start" font-weight="bold" fill="#874c18">S波</text><text x="352" y="421" font-size="16" text-anchor="middle" fill="#182b40">地震波が一定の速さで伝わるモデル。</text><text x="360" y="448" font-size="14" text-anchor="middle" fill="#526277">自作の学習用模式図・数値は設問用</text></g></svg>