<svg xmlns="http://www.w3.org/2000/svg" width="730" height="440" viewBox="0 0 730 440" role="img" aria-label="凸レンズの作図。焦点距離10cm。物体はレンズの左30cm。"><title>凸レンズの作図。焦点距離10cm。物体はレンズの左30cm。</title><defs><marker id="sci-visual_lens-arrow" markerWidth="8" markerHeight="8" refX="7" refY="4" orient="auto"><path d="M0,0 L8,4 L0,8 Z" fill="#263548"/></marker><pattern id="sci-visual_lens-hatch" width="7" height="7" patternUnits="userSpaceOnUse"><path d="M-1,1 L1,-1 M0,7 L7,0 M6,8 L8,6" stroke="#66788d" stroke-width="1"/></pattern></defs><rect width="100%" height="100%" fill="white"/><g font-family="Noto Sans CJK JP, Noto Sans JP, Yu Gothic, sans-serif" font-size="17" fill="#182b40" stroke-linecap="round" stroke-linejoin="round"><line x1="35" y1="205" x2="690" y2="205" stroke="#738297" stroke-width="1"/><path d="M385,94 Q351,205 385,316 Q419,205 385,94 Z" fill="#e9f4fa" stroke="#263548" stroke-width="2"/><line x1="185" y1="200" x2="185" y2="210" stroke="#263548" stroke-width="2"/><text x="185" y="233" font-size="17" text-anchor="middle" fill="#182b40">2F</text><line x1="285" y1="200" x2="285" y2="210" stroke="#263548" stroke-width="2"/><text x="285" y="233" font-size="17" text-anchor="middle" fill="#182b40">F</text><line x1="485" y1="200" x2="485" y2="210" stroke="#263548" stroke-width="2"/><text x="485" y="233" font-size="17" text-anchor="middle" fill="#182b40">F</text><line x1="585" y1="200" x2="585" y2="210" stroke="#263548" stroke-width="2"/><text x="585" y="233" font-size="17" text-anchor="middle" fill="#182b40">2F</text><line x1="85" y1="205" x2="85" y2="145" stroke="#263548" stroke-width="3" marker-end="url(#sci-visual_lens-arrow)"/><text x="85" y="127" font-size="18" text-anchor="middle" fill="#182b40">物体</text><line x1="85" y1="145" x2="385" y2="145" stroke="#126b8d" stroke-width="2.5"/><line x1="385" y1="145" x2="635" y2="295" stroke="#126b8d" stroke-width="2.5" marker-end="url(#sci-visual_lens-arrow)"/><line x1="85" y1="145" x2="635" y2="255" stroke="#874c18" stroke-width="2.5" marker-end="url(#sci-visual_lens-arrow)"/><line x1="535" y1="205" x2="535" y2="235" stroke="#263548" stroke-width="3" marker-end="url(#sci-visual_lens-arrow)"/><text x="550" y="270" font-size="18" text-anchor="middle" fill="#182b40">像</text><line x1="85" y1="344" x2="385" y2="344" stroke="#263548" stroke-width="2"/><line x1="85" y1="338" x2="85" y2="350" stroke="#263548" stroke-width="2"/><line x1="385" y1="338" x2="385" y2="350" stroke="#263548" stroke-width="2"/><text x="235" y="372" font-size="18" text-anchor="middle" fill="#182b40">30 cm</text><line x1="385" y1="344" x2="485" y2="344" stroke="#263548" stroke-width="2"/><line x1="485" y1="338" x2="485" y2="350" stroke="#263548" stroke-width="2"/><text x="435" y="372" font-size="18" text-anchor="middle" fill="#182b40">10 cm</text><text x="385" y="66" font-size="20" text-anchor="middle" font-weight="bold" fill="#182b40">凸レンズ</text><text x="610" y="365" font-size="15" text-anchor="middle" fill="#182b40">図は長さの比も表す</text><text x="365" y="428" font-size="14" text-anchor="middle" fill="#526277">自作の学習用模式図・数値は設問用</text></g></svg>