<svg xmlns="http://www.w3.org/2000/svg" width="700" height="430" viewBox="0 0 700 430" role="img" aria-label="銅をくり返し加熱したあとの固体の質量。"><title>銅をくり返し加熱したあとの固体の質量。</title><defs><marker id="sci-visual_copper-arrow" markerWidth="8" markerHeight="8" refX="7" refY="4" orient="auto"><path d="M0,0 L8,4 L0,8 Z" fill="#263548"/></marker><pattern id="sci-visual_copper-hatch" width="7" height="7" patternUnits="userSpaceOnUse"><path d="M-1,1 L1,-1 M0,7 L7,0 M6,8 L8,6" stroke="#66788d" stroke-width="1"/></pattern></defs><rect width="100%" height="100%" fill="white"/><g font-family="Noto Sans CJK JP, Noto Sans JP, Yu Gothic, sans-serif" font-size="17" fill="#182b40" stroke-linecap="round" stroke-linejoin="round"><line x1="85" y1="65" x2="85" y2="325" stroke="#d6dce4" stroke-width="1"/><text x="85" y="349" font-size="16" text-anchor="middle" fill="#182b40">0</text><line x1="181" y1="65" x2="181" y2="325" stroke="#d6dce4" stroke-width="1"/><text x="181" y="349" font-size="16" text-anchor="middle" fill="#182b40">1</text><line x1="277" y1="65" x2="277" y2="325" stroke="#d6dce4" stroke-width="1"/><text x="277" y="349" font-size="16" text-anchor="middle" fill="#182b40">2</text><line x1="373" y1="65" x2="373" y2="325" stroke="#d6dce4" stroke-width="1"/><text x="373" y="349" font-size="16" text-anchor="middle" fill="#182b40">3</text><line x1="469" y1="65" x2="469" y2="325" stroke="#d6dce4" stroke-width="1"/><text x="469" y="349" font-size="16" text-anchor="middle" fill="#182b40">4</text><line x1="565" y1="65" x2="565" y2="325" stroke="#d6dce4" stroke-width="1"/><text x="565" y="349" font-size="16" text-anchor="middle" fill="#182b40">5</text><line x1="85" y1="325" x2="565" y2="325" stroke="#d6dce4" stroke-width="1"/><text x="73" y="330" font-size="16" text-anchor="end" fill="#182b40">0</text><line x1="85" y1="281.667" x2="565" y2="281.667" stroke="#d6dce4" stroke-width="1"/><text x="73" y="286.667" font-size="16" text-anchor="end" fill="#182b40">0.2</text><line x1="85" y1="238.333" x2="565" y2="238.333" stroke="#d6dce4" stroke-width="1"/><text x="73" y="243.333" font-size="16" text-anchor="end" fill="#182b40">0.4</text><line x1="85" y1="195" x2="565" y2="195" stroke="#d6dce4" stroke-width="1"/><text x="73" y="200" font-size="16" text-anchor="end" fill="#182b40">0.6</text><line x1="85" y1="151.667" x2="565" y2="151.667" stroke="#d6dce4" stroke-width="1"/><text x="73" y="156.667" font-size="16" text-anchor="end" fill="#182b40">0.8</text><line x1="85" y1="108.333" x2="565" y2="108.333" stroke="#d6dce4" stroke-width="1"/><text x="73" y="113.333" font-size="16" text-anchor="end" fill="#182b40">1</text><line x1="85" y1="65" x2="565" y2="65" stroke="#d6dce4" stroke-width="1"/><text x="73" y="70" font-size="16" text-anchor="end" fill="#182b40">1.2</text><line x1="85" y1="65" x2="85" y2="325" stroke="#263548" stroke-width="2"/><line x1="85" y1="325" x2="565" y2="325" stroke="#263548" stroke-width="2"/><text x="325" y="377" font-size="17" text-anchor="middle" fill="#182b40">加熱回数 [回]</text><text x="85" y="47" font-size="17" text-anchor="start" fill="#182b40">固体の質量 [g]</text><path d="M85,151.667 L181,134.333 L277,117 L373,108.333 L469,108.333 L565,108.333" fill="none" stroke="#126b8d" stroke-width="3"/><circle cx="85" cy="151.667" r="3.8" fill="#126b8d" stroke="#126b8d" stroke-width="1"/><circle cx="181" cy="134.333" r="3.8" fill="#126b8d" stroke="#126b8d" stroke-width="1"/><circle cx="277" cy="117" r="3.8" fill="#126b8d" stroke="#126b8d" stroke-width="1"/><circle cx="373" cy="108.333" r="3.8" fill="#126b8d" stroke="#126b8d" stroke-width="1"/><circle cx="469" cy="108.333" r="3.8" fill="#126b8d" stroke="#126b8d" stroke-width="1"/><circle cx="565" cy="108.333" r="3.8" fill="#126b8d" stroke="#126b8d" stroke-width="1"/><text x="350" y="393" font-size="16" text-anchor="middle" fill="#182b40">加熱・冷却後に毎回はかる。固体は失われない。</text><text x="350" y="418" font-size="14" text-anchor="middle" fill="#526277">自作の学習用模式図・数値は設問用</text></g></svg>