<svg xmlns="http://www.w3.org/2000/svg" width="632" height="160" viewBox="0 0 632 160"><defs><marker id="arr" markerWidth="8" markerHeight="8" refX="6" refY="4" orient="auto"><path d="M0,0 L8,4 L0,8 z" fill="#000"/></marker></defs><g transform="translate(0,0)"><line x1="20.0" y1="30.0" x2="180.0" y2="30.0" stroke="#000" stroke-width="1.3"/><line x1="20.0" y1="130.0" x2="180.0" y2="130.0" stroke="#000" stroke-width="1.3"/><text x="186.0" y="34.0" font-size="13" text-anchor="start" fill="#000" font-family="Noto Serif, Noto Serif CJK JP, serif">ℓ</text><text x="186.0" y="134.0" font-size="13" text-anchor="start" fill="#000" font-family="Noto Serif, Noto Serif CJK JP, serif">m</text><line x1="50.0" y1="30.0" x2="110.0" y2="80.0" stroke="#000" stroke-width="1.3"/><line x1="110.0" y1="80.0" x2="170.0" y2="130.0" stroke="#000" stroke-width="1.3"/><path d="M 63.8 41.5 A 18.0 18.0 0 0 0 68.0 30.0" fill="none" stroke="#000" stroke-width="1.2"/><text x="82.2" y="45.6" font-size="12" text-anchor="middle" fill="#000" font-family="Noto Serif, Noto Serif CJK JP, serif">55°</text><path d="M 156.2 118.5 A 18.0 18.0 0 0 0 152.0 130.0" fill="none" stroke="#000" stroke-width="1.2"/><text x="137.8" y="122.4" font-size="12" text-anchor="middle" fill="#000" font-family="Noto Serif, Noto Serif CJK JP, serif">30°</text><path d="M 99.2 71.0 A 14.0 14.0 0 0 0 120.8 89.0" fill="none" stroke="#000" stroke-width="1.2"/><text x="93.0" y="104.4" font-size="12" text-anchor="middle" fill="#000" font-family="Noto Serif, Noto Serif CJK JP, serif">x</text><text x="100.0" y="12.0" font-size="12" text-anchor="middle" fill="#000" font-family="Noto Serif, Noto Serif CJK JP, serif">①</text></g><g transform="translate(216,0)"><polygon points="70.0,30.0 30.0,130.0 160.0,130.0" fill="none" stroke="#000" stroke-width="1.3"/><line x1="30.0" y1="130.0" x2="4.0" y2="130.0" stroke="#000" stroke-width="1.3"/><text x="70.0" y="26.0" font-size="13" text-anchor="middle" fill="#000" font-style="italic" font-family="Noto Serif, Noto Serif CJK JP, serif">A</text><text x="30.0" y="148.0" font-size="13" text-anchor="middle" fill="#000" font-style="italic" font-family="Noto Serif, Noto Serif CJK JP, serif">B</text><text x="165.0" y="146.0" font-size="13" text-anchor="start" fill="#000" font-style="italic" font-family="Noto Serif, Noto Serif CJK JP, serif">C</text><path d="M 64.1 44.9 A 16.0 16.0 0 0 0 80.7 41.9" fill="none" stroke="#000" stroke-width="1.2"/><text x="75.3" y="63.9" font-size="12" text-anchor="middle" fill="#000" font-family="Noto Serif, Noto Serif CJK JP, serif">40°</text><path d="M 35.9 115.1 A 16.0 16.0 0 0 0 14.0 130.0" fill="none" stroke="#000" stroke-width="1.2"/><text x="13.0" y="108.8" font-size="12" text-anchor="middle" fill="#000" font-family="Noto Serif, Noto Serif CJK JP, serif">110°</text><text x="100.0" y="12.0" font-size="12" text-anchor="middle" fill="#000" font-family="Noto Serif, Noto Serif CJK JP, serif">②</text></g><g transform="translate(432,0)"><polygon points="100.0,20.0 50.0,130.0 150.0,130.0" fill="none" stroke="#000" stroke-width="1.3"/><text x="100.0" y="16.0" font-size="13" text-anchor="middle" fill="#000" font-style="italic" font-family="Noto Serif, Noto Serif CJK JP, serif">A</text><text x="45.0" y="146.0" font-size="13" text-anchor="end" fill="#000" font-style="italic" font-family="Noto Serif, Noto Serif CJK JP, serif">B</text><text x="155.0" y="146.0" font-size="13" text-anchor="start" fill="#000" font-style="italic" font-family="Noto Serif, Noto Serif CJK JP, serif">C</text><line x1="71.7" y1="73.5" x2="78.3" y2="76.5" stroke="#000" stroke-width="1.0"/><line x1="121.7" y1="76.5" x2="128.3" y2="73.5" stroke="#000" stroke-width="1.0"/><path d="M 93.4 34.6 A 16.0 16.0 0 0 0 106.6 34.6" fill="none" stroke="#000" stroke-width="1.2"/><text x="100.0" y="54.4" font-size="12" text-anchor="middle" fill="#000" font-family="Noto Serif, Noto Serif CJK JP, serif">36°</text><text x="50.0" y="6.0" font-size="12" text-anchor="middle" fill="#000" font-family="Noto Serif, Noto Serif CJK JP, serif">③</text></g></svg>