<svg xmlns="http://www.w3.org/2000/svg" width="542" height="150" viewBox="0 0 542 150"><defs><marker id="arr" markerWidth="8" markerHeight="8" refX="6" refY="4" orient="auto"><path d="M0,0 L8,4 L0,8 z" fill="#000"/></marker></defs><g transform="translate(0,0)"><polygon points="85.0,18.8 28.3,121.9 141.7,121.9" fill="none" stroke="#000" stroke-width="1.3"/><line x1="65.2" y1="54.8" x2="141.7" y2="121.9" stroke="#000" stroke-width="1.3"/><line x1="104.8" y1="54.8" x2="28.3" y2="121.9" stroke="#000" stroke-width="1.3"/><text x="85.0" y="14.8" font-size="13" text-anchor="middle" fill="#000" font-style="italic" font-family="Noto Serif, Noto Serif CJK JP, serif">A</text><text x="23.3" y="137.9" font-size="13" text-anchor="end" fill="#000" font-style="italic" font-family="Noto Serif, Noto Serif CJK JP, serif">B</text><text x="146.7" y="137.9" font-size="13" text-anchor="start" fill="#000" font-style="italic" font-family="Noto Serif, Noto Serif CJK JP, serif">C</text><text x="57.2" y="58.8" font-size="13" text-anchor="end" fill="#000" font-style="italic" font-family="Noto Serif, Noto Serif CJK JP, serif">D</text><text x="112.8" y="58.8" font-size="13" text-anchor="start" fill="#000" font-style="italic" font-family="Noto Serif, Noto Serif CJK JP, serif">E</text><text x="28.3" y="13.4" font-size="12" text-anchor="middle" fill="#000" font-family="Noto Serif, Noto Serif CJK JP, serif">1</text></g><g transform="translate(186,0)"><polygon points="47.2,37.5 18.9,121.9 122.8,121.9 151.1,37.5" fill="none" stroke="#000" stroke-width="1.3"/><line x1="47.2" y1="37.5" x2="136.9" y2="79.7" stroke="#000" stroke-width="1.3"/><line x1="33.1" y1="79.7" x2="122.8" y2="121.9" stroke="#000" stroke-width="1.3"/><line x1="33.1" y1="79.7" x2="136.9" y2="79.7" stroke="#000" stroke-width="1.3" stroke-dasharray="5,4"/><text x="42.2" y="36.5" font-size="13" text-anchor="end" fill="#000" font-style="italic" font-family="Noto Serif, Noto Serif CJK JP, serif">A</text><text x="13.9" y="137.9" font-size="13" text-anchor="end" fill="#000" font-style="italic" font-family="Noto Serif, Noto Serif CJK JP, serif">B</text><text x="127.8" y="137.9" font-size="13" text-anchor="start" fill="#000" font-style="italic" font-family="Noto Serif, Noto Serif CJK JP, serif">C</text><text x="156.1" y="36.5" font-size="13" text-anchor="start" fill="#000" font-style="italic" font-family="Noto Serif, Noto Serif CJK JP, serif">D</text><text x="25.1" y="83.7" font-size="13" text-anchor="end" fill="#000" font-style="italic" font-family="Noto Serif, Noto Serif CJK JP, serif">M</text><text x="144.9" y="83.7" font-size="13" text-anchor="start" fill="#000" font-style="italic" font-family="Noto Serif, Noto Serif CJK JP, serif">N</text><text x="85.0" y="13.4" font-size="12" text-anchor="middle" fill="#000" font-family="Noto Serif, Noto Serif CJK JP, serif">2</text></g><g transform="translate(372,0)"><polygon points="85.0,18.8 28.3,121.9 141.7,121.9" fill="none" stroke="#000" stroke-width="1.3"/><line x1="85.0" y1="18.8" x2="85.0" y2="121.9" stroke="#000" stroke-width="1.3"/><text x="85.0" y="14.8" font-size="13" text-anchor="middle" fill="#000" font-style="italic" font-family="Noto Serif, Noto Serif CJK JP, serif">A</text><text x="23.3" y="137.9" font-size="13" text-anchor="end" fill="#000" font-style="italic" font-family="Noto Serif, Noto Serif CJK JP, serif">B</text><text x="146.7" y="137.9" font-size="13" text-anchor="start" fill="#000" font-style="italic" font-family="Noto Serif, Noto Serif CJK JP, serif">C</text><text x="85.0" y="139.9" font-size="13" text-anchor="middle" fill="#000" font-style="italic" font-family="Noto Serif, Noto Serif CJK JP, serif">D</text><path d="M 41.6 121.9 A 13.2 13.1 0 0 0 34.7 110.4" fill="none" stroke="#000" stroke-width="1.2"/><path d="M 135.3 110.4 A 13.2 13.1 0 0 0 128.4 121.9" fill="none" stroke="#000" stroke-width="1.2"/><text x="28.3" y="13.4" font-size="12" text-anchor="middle" fill="#000" font-family="Noto Serif, Noto Serif CJK JP, serif">3</text></g></svg>